<svg id="Layer_2" xmlns="http://www.w3.org/2000/svg" viewBox="0 0 977.09 229.68">
  <defs>
    <style>
      .cls-1{fill:#0f0}
    </style>
  </defs>
  <g id="Layer_1-2" data-name="Layer_1">
    <path class="cls-1" d="m104.15 4.03 11.13 100.43L126.46 4.03h-22.31z"/>
    <path class="cls-1" d="m115.28 104.46-7.9 40.68c-1.61 8.29-2.78 16.65-3.44 25.07 0 .05 0 .1-.01.16-1.82 23.12-14.91 38.24-41 38.24s-41.22-17.36-41.22-43.7v-8.68H0v8.68c0 38.44 22.94 64.78 62.92 64.78 31.25 0 54.54-16.79 61.44-45.7 2.05-8.6 2.27-17.53 1.06-26.28l-10.14-53.23ZM398.19 4.03v221.93h22.01v-108.8c0-33.78-.62-58.27-1.86-66.64l46.9 60.26L420.19 4.03h-22.01Z"/>
    <path class="cls-1" d="m465.23 110.78 25.32 60.01h21.39l25.32-60.01-36.01 46.27-36.02-46.27zM582.3 4.03l-45.04 106.75 46.9-60.26c-1.24 8.37-1.86 32.86-1.86 66.64v108.8h22.01V4.03H582.3ZM851.56 61.37c0-25.11 20.46-41.22 51.76-41.22 27.9 0 44.95 14.26 47.42 39.37h22.63C969.96 22.32 943.61.01 903.63.01c-44.63 0-74.39 24.49-74.39 61.68 0 30.38 31.06 45.64 53 50.16 7.37 1.52 12.64 2.62 17.31 3.58l-13.28-6.99c-23.83-14.3-34.72-27.53-34.72-47.06ZM924.4 120.41c-11.11-2.15-17.16-3.39-24.85-4.98l20.2 10.63c23 11.47 35.02 22.1 35.02 41.94 0 25.42-20.77 41.22-53.31 41.22-30.38 0-50.83-15.19-52.07-38.44h-22.94c2.79 36.27 31.93 58.89 75.01 58.89 45.87 0 75.63-24.49 75.63-62.92 0-30.07-34.61-42.84-52.69-46.35ZM671.21 205.5l-8.96-80.9h109.08v-20.14H662.35l8.86-79.97h110.34V4.03H648.89l12.29 110.96-12.29 110.97h132.98V205.5H671.21zM301.67 118.41l8.76 32.85H204.5l8.59-32.37-51.04 107.07h22.62l14.64-55.17h116.33l14.71 55.17h23.25l-51.93-107.55z"/>
    <path class="cls-1" d="M301.67 118.41 271.15 4.03h-27.58l-30.48 114.86 44.11-92.55 44.47 92.07z"/>
  </g>
</svg>
